<svg width="347" height="128" viewBox="0 0 347 128" fill="none" xmlns="http://www.w3.org/2000/svg">
<g filter="url(#filter0_dd)">
<path fill-rule="evenodd" clip-rule="evenodd" d="M21 45.7645C21 52.7981 22.6301 59.1833 25.8437 64.92C29.0573 70.6566 33.4818 75.0963 39.1172 78.1891L67.7134 94.8005C67.9463 94.9501 68.1326 95 68.3655 95C68.5052 95 68.6449 94.9501 68.7846 94.9002C69.1572 94.8005 69.4367 94.551 69.623 94.2019L76.3296 80.9327C76.7487 80.0847 76.5159 79.3863 75.7241 78.8875L73.9078 77.7401C79.2637 74.5476 83.5019 70.1079 86.6224 64.471C89.7428 58.7842 91.2798 52.4988 91.2798 45.6647C91.2798 35.6381 87.5538 26.2599 81.4061 19.6752C78.3788 16.3828 74.6529 13.7889 70.2284 11.8933C65.8039 9.9478 61.1 9 56.07 9C51.0401 9 46.3361 9.9478 41.9116 11.8933C37.5337 13.8387 33.8078 16.4327 30.7805 19.7251C24.6793 26.3097 21 35.6381 21 45.7645ZM43.7746 45.4977C43.7746 41.3573 44.9389 37.8155 47.2211 34.8724C49.5497 31.8793 52.4839 30.3828 56.0701 30.3828C59.6562 30.3828 62.5904 31.8793 64.9191 34.8724C67.2478 37.8155 68.4121 41.3573 68.4121 45.3979C68.4121 49.5383 67.2478 53.08 64.9191 56.0731C62.5904 59.0162 59.6562 60.5128 56.0701 60.5128C52.4839 60.5128 49.5497 59.0162 47.2211 56.0731C44.9389 53.08 43.7746 49.5383 43.7746 45.4977ZM94.5588 56.3398C94.6064 61.4369 95.8913 65.8544 98.3184 69.6408C103.22 77.2136 111.548 81 121.494 81C126.491 81 130.965 80.0777 134.962 78.1845C139.007 76.2913 142.243 73.4272 144.67 69.6408C147.145 65.8544 148.382 61.4369 148.382 56.3398V12.699C148.382 11.7767 147.669 11 146.717 11H129.965C129.156 11 128.3 11.7767 128.3 12.699V51.7767C128.3 57.1651 125.492 59.7864 121.494 59.7864C117.497 59.7864 114.642 57.1165 114.642 51.6796V12.699C114.642 11.7767 113.975 11 113.024 11H96.2245C95.3203 11 94.5588 11.7767 94.5588 12.699V56.3398ZM151.971 79.4643C151.971 80.2074 152.593 81 153.311 81H170.69C171.456 81 172.174 80.3064 172.174 79.5633V57.7657H187.35C188.164 57.7657 188.882 57.0722 189.026 56.3291L190.797 41.3185C190.941 40.5754 190.318 39.9314 189.505 39.9314H172.174V31.9059H197.069C197.978 31.9059 198.553 31.3114 198.553 30.3701V12.4367C198.553 11.6936 197.883 11 197.069 11H153.311C152.545 11 151.971 11.6936 151.971 12.4367V79.4643ZM202.206 79.5633C202.206 80.3064 202.856 81 203.598 81H240.036C240.778 81 241.428 80.3064 241.568 79.5633L243.471 61.5308C243.471 60.7381 242.914 60.0941 242.217 60.0941H221.887V12.5357C221.887 11.7431 221.19 11 220.448 11H203.598C202.856 11 202.206 11.7431 202.206 12.5357V79.5633ZM248.853 79.5633C248.853 80.3064 249.554 81 250.162 81H267.139C267.934 81 268.588 80.3064 268.588 79.5633V12.5357C268.588 11.7431 267.934 11 267.139 11H250.162C249.461 11 248.853 11.7431 248.853 12.5357V79.5633ZM273.971 79.5633C273.971 80.3064 274.648 81 275.234 81H291.615C292.382 81 293.104 80.3064 293.104 79.5633V65.5931H301.136C305.649 65.5931 309.8 64.3546 313.636 61.9271C317.471 59.4996 320.45 56.1805 322.661 51.9696C324.872 47.7587 326 43.201 326 38.2965C326 30.9151 323.202 23.8804 318.735 18.9759C314.267 14.0715 307.86 11 301.136 11H275.234C274.557 11 273.971 11.7431 273.971 12.5357V79.5633ZM293.706 34.4142H300.273C301.623 34.4142 302.788 34.913 303.766 35.9606C304.744 37.0081 305.21 38.2053 305.21 39.652C305.21 42.5951 303.021 44.8399 300.273 44.8399H293.706V34.4142Z" fill="white"/>
</g>
<defs>
<filter id="filter0_dd" x="0" y="0" width="347" height="128" filterUnits="userSpaceOnUse" color-interpolation-filters="sRGB">
<feFlood flood-opacity="0" result="BackgroundImageFix"/>
<feColorMatrix in="SourceAlpha" type="matrix" values="0 0 0 0 0 0 0 0 0 0 0 0 0 0 0 0 0 0 127 0"/>
<feOffset dy="12"/>
<feGaussianBlur stdDeviation="10.5"/>
<feColorMatrix type="matrix" values="0 0 0 0 0.117985 0 0 0 0 0.208993 0 0 0 0 0.323687 0 0 0 0.379982 0"/>
<feBlend mode="normal" in2="BackgroundImageFix" result="effect1_dropShadow"/>
<feColorMatrix in="SourceAlpha" type="matrix" values="0 0 0 0 0 0 0 0 0 0 0 0 0 0 0 0 0 0 127 0"/>
<feOffset dy="8"/>
<feGaussianBlur stdDeviation="0.5"/>
<feColorMatrix type="matrix" values="0 0 0 0 0.25063 0 0 0 0 0.30535 0 0 0 0 0.379199 0 0 0 0.0744735 0"/>
<feBlend mode="normal" in2="effect1_dropShadow" result="effect2_dropShadow"/>
<feBlend mode="normal" in="SourceGraphic" in2="effect2_dropShadow" result="shape"/>
</filter>
</defs>
</svg>
